<svg xmlns="http://www.w3.org/2000/svg" enable-background="new 0 0 32 32" viewBox="0 0 32 32" id="book">
  <path d="M27,5c0-1.6542969-1.3457031-3-3-3H8.7275391C6.671875,2,5,3.6552734,5,5.6894531v20.6210938
	C5,28.3447266,6.671875,30,8.7275391,30H26c0.3701172,0,0.7099609-0.2041016,0.8828125-0.5307617
	c0.1738281-0.3271484,0.1533203-0.7226562-0.0546875-1.0292969c-0.9814453-1.453125-0.9814453-2.8061523,0-4.2592773
	c0.1008263-0.1710892,0.1653957-0.362093,0.171875-0.5600586V5z M25,5v17.6206055H11.7304688V4H24C24.5517578,4,25,4.4487305,25,5z
	 M8.7275391,4h1.0029297v18.6206055H8.7275391c-0.626709,0-1.2086792,0.168396-1.7275391,0.4399414V5.6894531
	C7,4.7578125,7.7753906,4,8.7275391,4z M24.3808594,28H8.7275391C7.7753906,28,7,27.2421875,7,26.3105469
	s0.7753906-1.6899414,1.7275391-1.6899414h15.6533203C23.9980469,25.7412109,23.9980469,26.8793945,24.3808594,28z" fill="#c2c2c2" class="color000000 svgShape"></path>
  <path d="M14.7275391,12.6552734H22c0.5527344,0,1-0.4477539,1-1V7c0-0.5522461-0.4472656-1-1-1h-7.2724609
	c-0.5527344,0-1,0.4477539-1,1v4.6552734C13.7275391,12.2075195,14.1748047,12.6552734,14.7275391,12.6552734z M15.7275391,8H21
	v2.6552734h-5.2724609V8z" fill="#c2c2c2" class="color000000 svgShape"></path>
</svg>
